<svg xmlns="http://www.w3.org/2000/svg" viewBox="0 0 256 256" width="256" height="256">
  <defs>
    <style>
      .blk{fill:#111111;stroke:#111111;stroke-linecap:round;stroke-linejoin:round}
      .crm{fill:#F3E8D2;stroke:#111111;stroke-linecap:round;stroke-linejoin:round}
      .rst{fill:#C95533;stroke:#111111;stroke-linecap:round;stroke-linejoin:round}
      .nof{fill:none;stroke:#111111;stroke-linecap:round;stroke-linejoin:round}
    </style>
  </defs>
  <rect width="256" height="256" fill="none"/>
  
  <g transform="translate(0 6)">
    <circle class="crm" cx="68" cy="164" r="34" stroke-width="10"/>
    <circle class="crm" cx="188" cy="164" r="34" stroke-width="10"/>
    <circle class="blk" cx="68" cy="164" r="10" stroke-width="6"/>
    <circle class="blk" cx="188" cy="164" r="10" stroke-width="6"/>

    <path class="nof" d="M55 160 L95 118 L136 118 L169 144 L182 160" stroke-width="12"/>
    <path class="nof" d="M96 118 L134 94 L172 94" stroke-width="12"/>
    <path class="rst" d="M131 86 L174 86 Q184 86 187 95 L145 103 Q139 104 132 103 Z" stroke-width="8"/>
    <path class="blk" d="M89 114 Q98 100 115 100 Q130 100 139 114 Z" stroke-width="8"/>
    <rect class="crm" x="146" y="132" width="26" height="18" rx="8" stroke-width="8"/>
    <path class="nof" d="M172 94 L196 100 L212 86" stroke-width="10"/>
    <path class="crm" d="M207 78 h17 v14 h-17 q-5 0-5-7 q0-7 5-7z" stroke-width="8"/>
    <path class="nof" d="M95 118 L82 95" stroke-width="8"/>
    <path class="nof" d="M82 95 h-17" stroke-width="8"/>
    <path class="nof" d="M97 120 L79 160" stroke-width="10"/>
    <path class="nof" d="M121 121 L112 151" stroke-width="10"/>
    <path class="nof" d="M144 119 L131 151" stroke-width="10"/>
    <path class="nof" d="M108 164 h56" stroke-width="12"/>
    <path class="nof" d="M112 165 q12 19 28 19 q14 0 22-16" stroke-width="10"/>
    <path class="crm" d="M33 155 q7-8 17-7 h11" stroke-width="8"/>
  </g>

</svg>
